<?xml version="1.0" standalone="no"?>
<!DOCTYPE svg PUBLIC "-//W3C//DTD SVG 20010904//EN"
 "http://www.w3.org/TR/2001/REC-SVG-20010904/DTD/svg10.dtd">
<svg version="1.0" xmlns="http://www.w3.org/2000/svg"
 width="512.000000pt" height="512.000000pt" viewBox="0 0 512.000000 512.000000"
 preserveAspectRatio="xMidYMid meet">

<g transform="translate(0.000000,512.000000) scale(0.100000,-0.100000)"
fill="#000000" stroke="none">
<path d="M78 5099 c-23 -12 -46 -35 -58 -59 -20 -39 -20 -54 -20 -2480 0
-2427 0 -2441 20 -2480 13 -26 34 -47 60 -60 39 -20 55 -20 1422 -20 1285 1
1385 2 1415 18 43 23 960 954 973 987 7 17 10 705 10 2011 0 1969 0 1985 -20
2024 -13 26 -34 47 -60 60 -39 20 -54 20 -1872 20 -1805 -1 -1834 -1 -1870
-21z m3522 -2084 l0 -1805 -391 0 c-380 0 -392 -1 -429 -21 -21 -12 -47 -38
-59 -59 -20 -37 -21 -49 -21 -434 l0 -396 -1200 0 -1200 0 0 2260 0 2260 1650
0 1650 0 0 -1805z m-210 -2108 c0 -1 -88 -90 -195 -197 l-195 -195 0 198 0
197 195 0 c107 0 195 -1 195 -3z"/>
<path d="M1883 4489 c-62 -31 -83 -80 -83 -197 0 -67 -3 -92 -12 -92 -31 0
-137 -61 -177 -101 -24 -24 -58 -73 -75 -109 -28 -58 -31 -75 -31 -155 0 -78
4 -98 28 -151 36 -78 113 -155 192 -190 53 -25 76 -28 198 -33 130 -6 140 -7
158 -30 26 -32 24 -67 -6 -96 -24 -25 -24 -25 -236 -25 -194 0 -216 -2 -255
-21 -31 -15 -48 -32 -63 -63 -26 -53 -26 -86 -1 -136 31 -60 78 -80 190 -80
l90 0 0 -90 c0 -71 4 -99 20 -130 39 -77 146 -102 218 -52 48 35 62 77 62 186
0 70 3 96 13 96 30 0 136 61 176 101 24 24 58 73 75 109 28 58 31 75 31 155 0
78 -4 98 -28 151 -36 78 -113 155 -192 190 -53 25 -76 28 -198 33 -130 6 -140
7 -158 30 -26 32 -24 67 6 96 24 25 24 25 240 25 197 0 219 2 255 20 77 39
102 146 52 218 -34 47 -78 62 -181 62 l-91 0 0 90 c0 112 -20 159 -80 190 -50
25 -84 25 -137 -1z"/>
<path d="M679 2388 c-43 -24 -79 -83 -79 -128 0 -46 36 -104 80 -129 l38 -21
1233 0 1234 0 39 23 c100 57 100 197 0 254 l-39 23 -1235 0 -1235 0 -36 -22z"/>
<path d="M679 1788 c-43 -24 -79 -83 -79 -128 0 -46 36 -104 80 -129 l38 -21
1233 0 1234 0 39 23 c100 57 100 197 0 254 l-39 23 -1235 0 -1235 0 -36 -22z"/>
<path d="M679 1188 c-43 -24 -79 -83 -79 -128 0 -46 36 -104 80 -129 37 -21
44 -21 671 -21 l634 0 39 23 c100 57 100 197 0 254 l-39 23 -635 0 c-628 0
-635 -1 -671 -22z"/>
<path d="M4586 4336 c-67 -40 -75 -67 -76 -258 l0 -166 -99 -4 c-112 -3 -142
-17 -174 -79 -16 -32 -17 -120 -15 -1574 l3 -1540 27 -98 c15 -54 49 -144 76
-200 57 -119 221 -367 259 -393 42 -27 103 -30 150 -6 32 17 59 48 132 157
102 152 159 259 196 370 56 164 55 144 55 1760 0 1431 -1 1492 -19 1525 -34
64 -59 75 -182 78 l-109 4 0 165 c0 151 -2 169 -22 204 -24 43 -85 79 -134 79
-16 0 -47 -11 -68 -24z m234 -1026 l0 -300 -150 0 -150 0 0 300 0 300 150 0
150 0 0 -300z m0 -1430 l0 -830 -150 0 -150 0 0 830 0 830 150 0 150 0 0 -830z
m-21 -1169 c-21 -95 -109 -291 -130 -291 -15 0 -109 203 -123 268 l-14 62 138
0 138 0 -9 -39z"/>
</g>
</svg>
